<svg xmlns="http://www.w3.org/2000/svg" width="20.887" height="20.917" viewBox="0 0 20.887 20.917">
  <g id="phone-call-let" transform="translate(0.249 0.251)">
    <g id="Group_214" data-name="Group 214" transform="translate(0)">
      <path id="Path_371" data-name="Path 371" d="M16.465,38.872a2.008,2.008,0,0,0-1.456-.668,2.076,2.076,0,0,0-1.474.664l-1.362,1.357c-.112-.06-.224-.116-.332-.172-.155-.078-.3-.151-.427-.228a14.8,14.8,0,0,1-3.546-3.232,8.731,8.731,0,0,1-1.163-1.836c.353-.323.681-.659,1-.982.121-.121.241-.246.362-.366a1.977,1.977,0,0,0,0-2.982L6.89,29.25c-.134-.134-.271-.271-.4-.409-.259-.267-.53-.543-.81-.8a2.04,2.04,0,0,0-1.444-.633,2.111,2.111,0,0,0-1.465.633l-.009.009L1.3,29.526a3.152,3.152,0,0,0-.935,2,7.553,7.553,0,0,0,.552,3.2,18.553,18.553,0,0,0,3.3,5.5,20.278,20.278,0,0,0,6.752,5.287,10.521,10.521,0,0,0,3.792,1.12c.09,0,.185.009.271.009a3.247,3.247,0,0,0,2.486-1.069c0-.009.013-.013.017-.022a9.8,9.8,0,0,1,.754-.78c.185-.177.375-.362.56-.556a2.15,2.15,0,0,0,.651-1.491,2.071,2.071,0,0,0-.664-1.478Zm1.543,4.537s0,0,0,0c-.168.181-.34.345-.526.526a11.33,11.33,0,0,0-.832.862,2.077,2.077,0,0,1-1.62.685c-.065,0-.134,0-.2,0a9.346,9.346,0,0,1-3.361-1.008,19.141,19.141,0,0,1-6.36-4.981,17.493,17.493,0,0,1-3.1-5.166,6.152,6.152,0,0,1-.483-2.7,1.978,1.978,0,0,1,.595-1.28L3.59,28.875a.98.98,0,0,1,.655-.306.922.922,0,0,1,.629.3l.013.013c.263.246.513.5.776.771.134.138.271.276.409.418L7.248,31.25a.822.822,0,0,1,0,1.336c-.125.125-.246.25-.371.371-.362.371-.707.715-1.082,1.051-.009.009-.017.013-.022.022a.879.879,0,0,0-.224.978l.013.039a9.444,9.444,0,0,0,1.392,2.271l0,0A15.815,15.815,0,0,0,10.786,40.8a5.884,5.884,0,0,0,.53.289c.155.078.3.151.427.228.017.009.034.022.052.03a.934.934,0,0,0,.427.108.921.921,0,0,0,.655-.3l1.474-1.474A.975.975,0,0,1,15,39.363a.878.878,0,0,1,.62.315l.009.009L18,42.061A.852.852,0,0,1,18.008,43.409Z" transform="translate(-0.344 -26.225)" fill="#fff" stroke="#fff" stroke-width="0.5"/>
      <path id="Path_372" data-name="Path 372" d="M245.423,87.079a5.546,5.546,0,0,1,4.516,4.516.578.578,0,0,0,.573.483.769.769,0,0,0,.1-.009.582.582,0,0,0,.478-.672,6.706,6.706,0,0,0-5.464-5.464.585.585,0,0,0-.672.474A.575.575,0,0,0,245.423,87.079Z" transform="translate(-234.404 -82.223)" fill="#fff" stroke="#fff" stroke-width="0.5"/>
      <path id="Path_373" data-name="Path 373" d="M258.448,9.006a11.042,11.042,0,0,0-9-9,.581.581,0,1,0-.19,1.146A9.862,9.862,0,0,1,257.3,9.2a.578.578,0,0,0,.573.483.769.769,0,0,0,.1-.009A.571.571,0,0,0,258.448,9.006Z" transform="translate(-238.07 0)" fill="#fff" stroke="#fff" stroke-width="0.5"/>
    </g>
  </g>
</svg>
