<svg xmlns="http://www.w3.org/2000/svg" xmlns:xlink="http://www.w3.org/1999/xlink" width="78" height="31" viewBox="0 0 78 31"><defs><clipPath id="a"><rect width="78" height="31" transform="translate(135 26)" fill="#fff"/></clipPath><clipPath id="b"><rect width="184.854" height="184.854" fill="none"/></clipPath></defs><g transform="translate(-135 -26)" clip-path="url(#a)"><g transform="translate(77.146 -11.528)"><path d="M450.266,318.124h6.625l12.034-4.5h58.289v-4.012H468.925l-12.034,5.956h-6.625Z" transform="translate(-391.54 -269.236)" fill="#e9e9e9"/><g transform="translate(0 -0.003)"><g clip-path="url(#b)"><path d="M450.266,366.773h6.686l11.974-3.1h48.321s.243,4.315,0,4.315H468.926s-11.791,1.459-12.034,1.459h-6.625Z" transform="translate(-391.54 -316.241)" fill="#e9e9e9"/><path d="M450.266,418.967h6.564l12.035-.3h39.021v4.5s-38.839.182-39.021,0-11.791-1.58-12.035-1.58h-6.564Z" transform="translate(-391.54 -364.059)" fill="#e9e9e9"/><path d="M450.266,453.77h6.564l11.974,2.776h32.335V460.8H468.864l-12.1-4.316-6.5-.061Z" transform="translate(-391.54 -394.587)" fill="#e9e9e9"/><path d="M501.061,315.571v2.553l12.034-4.5v-4.011Z" transform="translate(-435.711 -269.233)" fill="#999"/><path d="M501.061,366.773v2.674l12.034-1.459v-4.315Z" transform="translate(-435.711 -316.241)" fill="#999"/><path d="M501.061,418.967v2.616l11.974,1.577v-4.5Z" transform="translate(-435.711 -364.059)" fill="#999"/><path d="M500.191,453.77l-.061,2.715,12.1,4.316-.061-4.255Z" transform="translate(-434.9 -394.587)" fill="#999"/></g></g></g></g></svg>